<?xml version="1.0" encoding="UTF-8" standalone="no"?>
<svg
   xmlns:dc="http://purl.org/dc/elements/1.1/"
   xmlns:cc="http://creativecommons.org/ns#"
   xmlns:rdf="http://www.w3.org/1999/02/22-rdf-syntax-ns#"
   xmlns:svg="http://www.w3.org/2000/svg"
   xmlns="http://www.w3.org/2000/svg"
   id="svg4"
   xml:space="preserve"
   viewBox="0 0 1024 768"
   y="0px"
   x="0px"
   version="1.1"><metadata
     id="metadata10"><rdf:RDF><cc:Work
         rdf:about=""><dc:format>image/svg+xml</dc:format><dc:type
           rdf:resource="http://purl.org/dc/dcmitype/StillImage" /></cc:Work></rdf:RDF></metadata><defs
     id="defs8" /><path
     id="path2"
     d="m477.04 261.31c-7.58 0-13.95 0.01-14.15 0.02-0.2 0.02-0.49 0.06-0.63 0.1-0.15 0.04-0.34 0.11-0.44 0.17s-0.23 0.18-0.3 0.27c-0.06 0.09-0.14 0.25-0.18 0.35-0.03 0.11-0.08 0.32-0.11 0.48-0.04 0.23-0.05 8.26-0.05 42.7 0 35.75 0 42.47 0.05 42.72 0.03 0.17 0.09 0.41 0.14 0.53 0.05 0.13 0.15 0.29 0.25 0.4 0.11 0.1 0.26 0.2 0.4 0.25 0.12 0.05 0.35 0.11 0.52 0.14 0.26 0.04 2.62 0.05 14.24 0.05s13.98-0.01 14.23-0.05c0.17-0.03 0.4-0.09 0.51-0.13s0.27-0.14 0.36-0.2c0.08-0.07 0.2-0.22 0.25-0.34 0.06-0.12 0.14-0.35 0.18-0.52l0.07-0.31 0.02-17.5 0.03-17.5 0.06-0.33c0.04-0.18 0.11-0.43 0.15-0.57 0.05-0.13 0.13-0.32 0.19-0.41 0.05-0.1 0.19-0.25 0.29-0.34s0.29-0.21 0.42-0.26c0.2-0.08 0.3-0.09 0.8-0.09 0.39 0 0.68 0.02 0.92 0.07 0.19 0.04 0.51 0.13 0.72 0.2 0.21 0.06 0.56 0.2 0.8 0.3 0.23 0.11 0.54 0.26 0.68 0.34 0.15 0.08 0.72 0.4 1.27 0.71s1.21 0.68 1.47 0.81 0.73 0.34 1.05 0.46c0.32 0.13 0.81 0.3 1.09 0.37 0.27 0.08 0.72 0.18 0.99 0.22 0.27 0.05 0.71 0.11 0.98 0.13s0.7 0.04 0.96 0.04c0.25 0 0.69-0.02 0.96-0.04s0.7-0.08 0.96-0.12c0.25-0.05 0.67-0.14 0.92-0.21 0.26-0.06 0.68-0.2 0.94-0.3 0.27-0.11 0.66-0.28 0.87-0.4 0.22-0.11 0.54-0.3 0.73-0.43 0.19-0.12 0.48-0.32 0.64-0.45 0.15-0.13 0.45-0.4 0.66-0.6 0.2-0.21 0.51-0.56 0.68-0.79s0.4-0.57 0.52-0.76c0.11-0.19 0.26-0.46 0.33-0.6s0.2-0.43 0.29-0.66c0.08-0.23 0.21-0.61 0.28-0.85 0.07-0.23 0.17-0.66 0.22-0.96 0.05-0.29 0.12-0.76 0.14-1.05 0.03-0.29 0.05-0.73 0.05-0.98-0.01-0.25-0.02-0.68-0.05-0.95-0.02-0.27-0.08-0.7-0.12-0.96-0.05-0.26-0.14-0.67-0.2-0.93-0.07-0.25-0.2-0.66-0.3-0.92-0.1-0.25-0.25-0.59-0.33-0.76-0.09-0.16-0.25-0.46-0.38-0.66-0.12-0.19-0.35-0.53-0.51-0.74s-0.47-0.56-0.69-0.77c-0.21-0.21-0.53-0.49-0.69-0.62-0.17-0.13-0.47-0.33-0.67-0.46s-0.52-0.31-0.7-0.4-0.53-0.25-0.78-0.34c-0.26-0.1-0.67-0.24-0.92-0.3-0.26-0.07-0.67-0.16-0.93-0.2-0.26-0.05-0.69-0.11-0.96-0.13s-0.7-0.04-0.96-0.04-0.69 0.02-0.96 0.04-0.71 0.08-0.98 0.13c-0.27 0.04-0.72 0.14-0.99 0.22-0.27 0.07-0.76 0.24-1.08 0.37-0.32 0.12-0.8 0.33-1.06 0.46s-0.92 0.5-1.47 0.81-1.12 0.63-1.26 0.71c-0.15 0.08-0.46 0.23-0.69 0.34-0.23 0.1-0.59 0.24-0.8 0.3-0.2 0.07-0.53 0.15-0.72 0.2-0.23 0.04-0.53 0.07-0.92 0.07-0.5 0-0.6-0.01-0.8-0.09-0.13-0.05-0.32-0.17-0.42-0.26s-0.23-0.24-0.29-0.34c-0.05-0.09-0.14-0.28-0.18-0.41-0.05-0.14-0.12-0.39-0.16-0.57l-0.06-0.33-0.03-17.5-0.02-17.5-0.07-0.3c-0.04-0.16-0.1-0.37-0.14-0.47-0.05-0.09-0.13-0.23-0.19-0.3s-0.21-0.18-0.33-0.24c-0.11-0.05-0.35-0.13-0.52-0.17l-0.3-0.07h-13.79zm66.17 0c-10.62 0-19.47 0.01-19.67 0.02-0.2 0.02-0.48 0.06-0.63 0.1-0.14 0.04-0.34 0.12-0.44 0.17-0.09 0.06-0.22 0.16-0.27 0.24-0.06 0.07-0.13 0.2-0.17 0.29-0.04 0.08-0.1 0.28-0.13 0.44l-0.07 0.3-0.01 17.11c-0.01 11.87 0 17.28 0.03 17.65 0.02 0.29 0.08 0.68 0.12 0.86 0.05 0.17 0.14 0.43 0.21 0.57 0.07 0.15 0.2 0.32 0.33 0.44 0.11 0.1 0.31 0.22 0.43 0.27 0.21 0.09 0.3 0.1 0.81 0.1 0.38-0.01 0.68-0.03 0.92-0.08 0.19-0.04 0.51-0.13 0.72-0.19 0.2-0.07 0.56-0.21 0.79-0.31 0.24-0.1 0.55-0.25 0.69-0.33 0.15-0.08 0.72-0.4 1.27-0.72 0.55-0.31 1.2-0.67 1.45-0.79 0.24-0.13 0.69-0.33 1-0.45 0.3-0.12 0.76-0.28 1.03-0.36s0.74-0.19 1.03-0.24c0.29-0.06 0.77-0.12 1.06-0.14 0.28-0.03 0.72-0.05 0.98-0.05 0.25 0 0.67 0.02 0.94 0.05 0.27 0.02 0.7 0.07 0.96 0.12 0.26 0.04 0.68 0.14 0.93 0.2 0.25 0.07 0.67 0.21 0.93 0.31s0.64 0.26 0.83 0.36c0.2 0.1 0.53 0.3 0.74 0.44 0.21 0.13 0.52 0.36 0.69 0.5 0.18 0.13 0.46 0.4 0.65 0.58 0.18 0.18 0.46 0.5 0.62 0.71s0.39 0.54 0.51 0.73c0.12 0.2 0.29 0.5 0.37 0.66 0.09 0.17 0.23 0.51 0.33 0.76 0.1 0.26 0.24 0.67 0.3 0.92 0.07 0.26 0.16 0.67 0.21 0.93 0.04 0.26 0.1 0.69 0.12 0.96s0.04 0.7 0.04 0.95-0.02 0.69-0.04 0.98c-0.03 0.29-0.09 0.76-0.14 1.05-0.06 0.3-0.16 0.74-0.23 0.98-0.07 0.25-0.21 0.66-0.32 0.92-0.1 0.26-0.3 0.67-0.43 0.91-0.14 0.24-0.36 0.6-0.49 0.79-0.14 0.18-0.38 0.49-0.53 0.67-0.16 0.19-0.45 0.49-0.66 0.66-0.2 0.18-0.52 0.44-0.72 0.58s-0.57 0.37-0.82 0.51-0.69 0.35-0.97 0.46c-0.29 0.11-0.73 0.26-0.98 0.32-0.26 0.07-0.68 0.16-0.94 0.21-0.26 0.04-0.69 0.1-0.96 0.12s-0.7 0.04-0.96 0.04c-0.25 0-0.69-0.02-0.96-0.04s-0.71-0.08-0.98-0.13c-0.27-0.04-0.71-0.14-0.99-0.22-0.27-0.07-0.76-0.24-1.08-0.37-0.32-0.12-0.8-0.33-1.06-0.47-0.26-0.13-0.84-0.44-1.29-0.7-0.44-0.25-1.01-0.57-1.26-0.71-0.24-0.14-0.63-0.33-0.87-0.44-0.23-0.1-0.59-0.24-0.79-0.3-0.21-0.07-0.53-0.16-0.72-0.2-0.24-0.05-0.54-0.07-0.92-0.07-0.5 0-0.6 0.01-0.81 0.09-0.12 0.05-0.32 0.18-0.44 0.28-0.12 0.11-0.25 0.28-0.32 0.44-0.07 0.13-0.16 0.39-0.21 0.57-0.04 0.17-0.1 0.56-0.12 0.86-0.03 0.37-0.04 5.78-0.03 17.65l0.01 17.11 0.07 0.31c0.04 0.16 0.12 0.4 0.18 0.52 0.05 0.11 0.17 0.27 0.25 0.34 0.08 0.06 0.24 0.15 0.36 0.19 0.11 0.05 0.34 0.11 0.51 0.14 0.25 0.04 3.45 0.05 19.74 0.05s19.49-0.01 19.75-0.05c0.17-0.03 0.41-0.1 0.53-0.14 0.13-0.05 0.29-0.15 0.39-0.26 0.11-0.1 0.21-0.26 0.26-0.39 0.04-0.12 0.1-0.36 0.13-0.53 0.05-0.25 0.06-6.97 0.06-42.72s-0.01-42.46-0.06-42.72c-0.03-0.17-0.09-0.4-0.13-0.51s-0.13-0.27-0.2-0.36c-0.07-0.08-0.22-0.19-0.34-0.25-0.11-0.06-0.35-0.14-0.52-0.18l-0.3-0.07h-19.3zm-157.78 135.24l-9.39 5.88v9.39l9.39-5.87v-9.4zm-9.39 18.24v42.31h9.39v-42.31h-9.39zm127.38 0.61l-0.45 0.01c-0.58 0.02-1.16 0.06-1.76 0.12-1.34 0.15-2.73 0.4-4.13 0.86-1.06 0.35-2.14 0.82-3.21 1.48-1.23 0.76-2.43 1.83-3.35 3.19-0.93 1.35-1.52 2.96-1.71 4.48-0.1 0.76-0.13 1.51-0.09 2.22 0.03 0.71 0.13 1.46 0.32 2.21 0.35 1.52 1.16 3.07 2.2 4.25 1.04 1.19 2.24 2.02 3.37 2.64s2.21 1.05 3.26 1.41c2.08 0.72 4.02 1.17 5.8 1.68 1.77 0.48 3.4 1.09 4.57 1.81 0.58 0.35 1.03 0.72 1.29 1.05 0.29 0.34 0.37 0.61 0.47 0.91 0.07 0.3 0.15 0.67 0.14 1.2 0 0.26-0.01 0.36-0.05 0.51-0.03 0.14-0.06 0.26-0.12 0.38-0.12 0.24-0.29 0.5-0.61 0.78-0.31 0.28-0.74 0.57-1.26 0.82-1.05 0.51-2.42 0.83-3.83 0.94-0.35 0.03-0.71 0.03-1.07 0.04-0.31-0.01-0.62-0.01-0.92-0.05-0.6-0.06-1.19-0.21-1.74-0.39-1.1-0.4-2.05-1.05-2.68-1.78-0.64-0.75-0.94-1.52-0.98-2.33h-9.1c-0.02 1.5 0.24 3.03 0.76 4.43 0.53 1.41 1.28 2.69 2.18 3.79 1.81 2.23 4.18 3.75 6.68 4.65 1.25 0.45 2.55 0.75 3.85 0.89 0.65 0.08 1.3 0.11 1.95 0.11 0.6 0 1.19-0.01 1.8-0.07 2.4-0.19 4.83-0.76 7.22-1.95 1.19-0.6 2.37-1.38 3.45-2.42 1.09-1.02 2.06-2.34 2.71-3.86 0.32-0.76 0.55-1.57 0.69-2.37 0.07-0.41 0.11-0.81 0.14-1.21 0.02-0.39 0.04-0.81 0.01-1.14-0.05-1.39-0.32-2.93-0.98-4.4-0.64-1.47-1.67-2.8-2.8-3.76-1.13-0.99-2.31-1.65-3.43-2.17-2.26-1.01-4.33-1.49-6.24-2.03-1.91-0.52-3.7-0.98-5.23-1.54-0.27-0.1-0.52-0.21-0.77-0.31-0.08-0.03-0.15-0.07-0.23-0.1-0.2-0.09-0.4-0.18-0.58-0.28-0.03-0.01-0.05-0.03-0.08-0.04-0.11-0.06-0.22-0.12-0.32-0.18-0.23-0.14-0.41-0.27-0.58-0.4-0.23-0.19-0.41-0.37-0.53-0.53-0.19-0.28-0.28-0.49-0.34-0.84-0.06-0.32-0.06-0.93 0.03-1.28 0.09-0.37 0.22-0.59 0.41-0.8 0.18-0.21 0.45-0.43 0.86-0.65 0.81-0.45 2.15-0.78 3.59-0.86 0.36-0.02 0.73-0.03 1.11-0.02h0.28l0.22 0.01c0.15 0 0.3 0.02 0.44 0.03 0.59 0.07 1.16 0.2 1.69 0.4 1.07 0.4 1.98 1.05 2.59 1.8 0.61 0.77 0.93 1.57 0.96 2.42h9.1c0.04-2.98-1.06-5.97-2.87-8.18-1.79-2.23-4.17-3.81-6.71-4.68-1.28-0.45-2.59-0.72-3.91-0.84-0.33-0.02-0.66-0.05-0.99-0.05l-0.49-0.01zm53.62 0c-11.66 0-21.15 9.49-21.15 21.16 0 11.66 9.49 21.15 21.15 21.15 11.67 0 21.16-9.49 21.16-21.15 0-5.46-2.08-10.44-5.48-14.19-0.47-0.52-0.97-1.02-1.49-1.49-3.75-3.4-8.73-5.48-14.19-5.48zm231.77 0c-11.67 0-21.16 9.49-21.16 21.16 0 11.66 9.49 21.15 21.16 21.15 11.66 0 21.15-9.49 21.15-21.15 0-5.46-2.07-10.44-5.48-14.19-0.47-0.52-0.96-1.02-1.48-1.49-3.76-3.4-8.74-5.48-14.19-5.48zm112.37 0l-0.44 0.01c-0.58 0.02-1.17 0.06-1.76 0.12-1.34 0.15-2.73 0.4-4.14 0.86-1.06 0.35-2.13 0.82-3.2 1.48-1.23 0.76-2.44 1.83-3.36 3.19-0.93 1.35-1.51 2.96-1.7 4.48-0.11 0.76-0.13 1.51-0.09 2.22 0.03 0.71 0.13 1.46 0.31 2.21 0.36 1.52 1.16 3.07 2.21 4.25 1.04 1.19 2.24 2.02 3.36 2.64 1.13 0.62 2.22 1.05 3.26 1.41 2.09 0.72 4.02 1.17 5.8 1.68 1.77 0.48 3.41 1.09 4.58 1.81 0.57 0.35 1.02 0.72 1.29 1.05 0.28 0.34 0.37 0.61 0.47 0.91 0.07 0.3 0.15 0.67 0.13 1.2 0 0.26-0.01 0.36-0.04 0.51-0.03 0.14-0.07 0.26-0.13 0.38-0.11 0.24-0.29 0.5-0.6 0.78s-0.74 0.57-1.27 0.82c-1.05 0.51-2.42 0.83-3.83 0.94-0.35 0.03-0.71 0.03-1.07 0.04-0.3-0.01-0.61-0.01-0.91-0.05-0.61-0.06-1.19-0.21-1.74-0.39-1.1-0.4-2.05-1.05-2.69-1.78-0.64-0.75-0.93-1.52-0.98-2.33h-9.1c-0.01 1.5 0.24 3.03 0.77 4.43 0.52 1.41 1.27 2.69 2.18 3.79 1.81 2.23 4.18 3.75 6.68 4.65 1.25 0.45 2.54 0.75 3.84 0.89 0.65 0.08 1.3 0.11 1.95 0.11 0.6 0 1.2-0.01 1.8-0.07 2.4-0.19 4.83-0.76 7.22-1.95 1.19-0.6 2.38-1.38 3.46-2.42 1.08-1.02 2.06-2.34 2.7-3.86 0.33-0.76 0.55-1.57 0.69-2.37 0.08-0.41 0.12-0.81 0.15-1.21 0.02-0.39 0.03-0.81 0.01-1.14-0.05-1.39-0.32-2.93-0.98-4.4-0.64-1.47-1.68-2.8-2.8-3.76-1.13-0.99-2.32-1.65-3.44-2.17-2.26-1.01-4.32-1.49-6.24-2.03-1.91-0.52-3.7-0.98-5.23-1.54-0.26-0.1-0.52-0.21-0.76-0.31-0.08-0.03-0.16-0.07-0.23-0.1-0.21-0.09-0.4-0.18-0.59-0.28-0.02-0.01-0.04-0.03-0.07-0.04-0.11-0.06-0.23-0.12-0.33-0.18-0.22-0.14-0.41-0.27-0.57-0.4-0.23-0.19-0.41-0.37-0.53-0.53-0.19-0.28-0.29-0.49-0.34-0.84-0.07-0.32-0.07-0.93 0.03-1.28 0.09-0.37 0.22-0.59 0.4-0.8s0.45-0.43 0.87-0.65c0.81-0.45 2.14-0.78 3.59-0.86 0.36-0.02 0.73-0.03 1.11-0.02h0.27l0.23 0.01c0.15 0 0.29 0.02 0.44 0.03 0.59 0.07 1.16 0.2 1.69 0.4 1.06 0.4 1.98 1.05 2.59 1.8 0.6 0.77 0.93 1.57 0.95 2.42h9.1c0.04-2.98-1.06-5.97-2.86-8.18-1.79-2.23-4.17-3.81-6.72-4.68-1.27-0.45-2.58-0.72-3.9-0.84-0.33-0.02-0.66-0.05-0.99-0.05l-0.5-0.01zm-794.18 0.74v42.32h9.39v-14.08h6.23l11.15 14.08h10.65l-11.84-14.95c5.57-1.94 9.54-6.95 9.54-13.25 0-7.06-4.98-12.5-11.62-13.81-1-0.2-2.05-0.31-3.12-0.31h-10.99-9.39zm52.64 0v24.5c0 9.82 7.99 17.82 17.81 17.82 1.59 0 3.13-0.22 4.59-0.61 7.61-2.03 13.23-8.98 13.23-17.21v-24.5h-9.26v24.5c0 4.72-3.84 8.56-8.56 8.56-4.71 0-8.54-3.83-8.56-8.53v-0.03-24.5h-9.25zm109.58 0v42.31h9.4v0.01h20.47v-8.15h-20.47v-34.17h-9.4zm45.67 0v13.78 28.53h9.39v-15.76l11.6 15.77 11.6-15.77v15.76h9.39v-28.53-13.78l-9.25 12.58-11.74 15.96-11.74-15.96-9.25-12.58zm89.73 0v13.78 28.53h9.4v-15.76l11.59 15.77 11.6-15.77v15.76h9.39v-28.53-13.78l-9.25 12.58-11.74 15.96-11.73-15.96-9.26-12.58zm192.14 0v42.31h9.4v0.01h20.47v-8.15h-20.47v-34.17h-9.4zm43.03 0v24.5c0 9.82 7.99 17.82 17.81 17.82 1.59 0 3.13-0.22 4.6-0.61 7.6-2.03 13.22-8.98 13.22-17.21v-24.5h-9.26v24.5c0 4.72-3.84 8.56-8.56 8.56-4.71 0-8.54-3.83-8.56-8.53v-0.03-24.5h-9.25zm51.25 0v8.14h12.4v34.18h9.39v-34.18h12.4v-8.14h-12.4-9.39-12.4zm49.96 0v42.32h9.4v-42.32h-9.4zm87.59 0v42.31h9.39v-24.13l30.1 24.14v-0.01-10.64-31.67h-9.39v24.14l-30.1-24.14zm-598.04 0.06l-5.31 9.56-18.19 32.75h11.27l12.56-22.61 12.56 22.61h10.61l-17.86-32.17-5.64-10.14zm-114.16 8.08h10.99c2.95 0 5.35 3.03 5.35 5.98 0 2.52-1.76 5.09-4.11 5.79-0.4 0.12-0.81 0.19-1.24 0.19h-10.99v-11.96zm440.65 0.25c6.64 0 12.04 5.39 12.04 12.03 0 6.63-5.4 12.03-12.04 12.03-6.63 0-12.03-5.4-12.03-12.03 0-6.64 5.4-12.03 12.03-12.03zm231.77 0c6.63 0 12.03 5.39 12.03 12.03 0 6.63-5.4 12.03-12.03 12.03-6.64 0-12.03-5.4-12.03-12.03 0-6.64 5.39-12.03 12.03-12.03zm-397.36 54.06c-1.97 0-2.95 0.88-2.95 2.64 0 1.78 0.98 2.67 2.95 2.67 0.98 0 1.72-0.23 2.2-0.69 0.5-0.48 0.75-1.14 0.75-1.98 0-1.76-0.99-2.64-2.95-2.64zm31.64 0v6.35c0 1.16 0.13 2.48 0.4 3.96h-0.17c-1.32-1.94-3.22-2.91-5.72-2.91-2.38 0-4.25 0.91-5.61 2.73-1.35 1.82-2.03 4.35-2.03 7.6 0 3.21 0.67 5.72 2 7.53s3.17 2.72 5.5 2.72c2.52 0 4.4-0.98 5.63-2.93h0.23l1.04 2.57h4.16v-27.62h-5.43zm220.01 0v27.62h5.41v-27.62h-5.41zm99.25 0v6.35c0 1.16 0.14 2.48 0.41 3.96h-0.18c-1.31-1.94-3.22-2.91-5.71-2.91-2.38 0-4.25 0.91-5.61 2.73-1.35 1.82-2.03 4.35-2.03 7.6 0 3.21 0.66 5.72 1.99 7.53 1.34 1.81 3.17 2.72 5.5 2.72 2.52 0 4.4-0.98 5.63-2.93h0.23l1.05 2.57h4.15v-27.62h-5.43zm-475.31 1.29c-2.47 0-4.64 0.55-6.48 1.64-1.84 1.07-3.24 2.63-4.23 4.67-0.98 2.02-1.47 4.38-1.47 7.08 0 4.28 1 7.57 3 9.87 2 2.28 4.89 3.43 8.66 3.43 2.63 0 5.01-0.45 7.14-1.33v-4.62c-2.59 0.91-4.8 1.37-6.62 1.37-4.34 0-6.52-2.9-6.52-8.69 0-2.78 0.57-4.94 1.71-6.49 1.13-1.56 2.74-2.35 4.81-2.35 0.95 0 1.91 0.18 2.89 0.52s1.96 0.75 2.93 1.21l1.78-4.48c-2.55-1.22-5.08-1.83-7.6-1.83zm318.71 0c-2.74 0-4.9 0.66-6.46 1.98-1.55 1.31-2.32 3.11-2.32 5.41 0 1.22 0.23 2.28 0.71 3.19 0.47 0.92 1.1 1.71 1.9 2.4 0.79 0.69 1.98 1.4 3.56 2.15 1.7 0.8 2.82 1.39 3.36 1.76 0.56 0.36 0.98 0.75 1.26 1.15 0.28 0.39 0.43 0.84 0.43 1.35 0 0.91-0.33 1.6-0.98 2.06-0.64 0.46-1.56 0.69-2.77 0.69-1.01 0-2.12-0.16-3.34-0.48-1.21-0.32-2.68-0.87-4.44-1.65v5.11c2.13 1.05 4.58 1.57 7.35 1.57 3.01 0 5.35-0.68 7.03-2.03 1.7-1.35 2.54-3.19 2.54-5.54 0-1.69-0.45-3.11-1.35-4.27-0.9-1.18-2.56-2.34-4.99-3.5-1.83-0.88-2.99-1.48-3.49-1.81-0.49-0.35-0.84-0.69-1.07-1.05-0.22-0.37-0.33-0.79-0.33-1.28 0-0.78 0.27-1.41 0.83-1.9 0.56-0.48 1.35-0.73 2.4-0.73 0.87 0 1.76 0.12 2.66 0.34 0.91 0.23 2.06 0.62 3.44 1.19l1.78-4.28c-1.34-0.58-2.62-1.03-3.85-1.35-1.22-0.32-2.51-0.48-3.86-0.48zm-71.65 0.38v3.12l3.16 1.46v16.79l-3.16 1.46v3.12h11.81v-3.12l-3.16-1.46v-16.79l3.16-1.46v-3.12h-11.81zm29.7 1.88l-1.56 4.19-2.98 1.81v2.29h2.59v9.57c0 2.19 0.49 3.83 1.47 4.93 1 1.09 2.58 1.64 4.74 1.64 1.97 0 3.63-0.3 4.98-0.91v-4.03c-1.33 0.42-2.47 0.62-3.41 0.62-0.71 0-1.29-0.18-1.73-0.55-0.42-0.36-0.63-0.93-0.63-1.7v-9.57h5.55v-4.07h-5.55v-4.22h-3.47zm-245.23 3.85c-3.07 0-5.45 0.9-7.14 2.7s-2.54 4.32-2.54 7.56c0 2.08 0.39 3.91 1.17 5.47 0.79 1.56 1.9 2.76 3.36 3.6 1.46 0.83 3.14 1.25 5.04 1.25 3.04 0 5.42-0.92 7.12-2.74s2.56-4.35 2.56-7.58c0-2.08-0.39-3.9-1.18-5.45-0.78-1.55-1.89-2.74-3.35-3.57-1.46-0.82-3.14-1.24-5.04-1.24zm36.67 0c-1.35 0-2.55 0.25-3.62 0.75-1.05 0.48-1.88 1.2-2.48 2.16h-0.3l-0.73-2.54h-4.14v19.85h5.42v-9.34c0-2.34 0.33-4.01 1.01-5.02 0.67-1.02 1.77-1.53 3.28-1.53 1.11 0 1.93 0.36 2.44 1.09 0.5 0.71 0.76 1.78 0.76 3.21v11.59h5.41v-12.94c0-2.36-0.59-4.15-1.79-5.4s-2.95-1.88-5.26-1.88zm30.68 0c-2.51 0-4.45 0.49-5.82 1.46-1.36 0.96-2.04 2.32-2.04 4.08 0 1.03 0.16 1.9 0.48 2.61 0.33 0.7 0.85 1.32 1.56 1.86 0.72 0.55 1.84 1.14 3.37 1.78 1.07 0.45 1.92 0.85 2.56 1.19 0.64 0.33 1.09 0.63 1.35 0.91 0.26 0.26 0.39 0.6 0.39 1.02 0 1.14-0.99 1.71-2.95 1.71-0.96 0-2.07-0.16-3.34-0.48-1.25-0.32-2.38-0.72-3.39-1.19v4.47c0.89 0.38 1.84 0.67 2.86 0.86 1.02 0.2 2.25 0.3 3.69 0.3 2.82 0 4.93-0.54 6.34-1.6 1.42-1.07 2.13-2.62 2.13-4.65 0-0.98-0.17-1.83-0.51-2.54-0.35-0.71-0.88-1.34-1.6-1.88-0.72-0.55-1.86-1.13-3.41-1.76-1.74-0.7-2.87-1.22-3.39-1.58-0.51-0.35-0.76-0.78-0.76-1.26 0-0.87 0.79-1.3 2.39-1.3 0.9 0 1.78 0.14 2.65 0.41 0.86 0.27 1.79 0.62 2.79 1.05l1.63-3.91c-2.26-1.04-4.59-1.56-6.98-1.56zm87.81 0c-2.94 0-5.24 0.91-6.91 2.73-1.66 1.82-2.48 4.38-2.48 7.71 0 3.23 0.89 5.73 2.69 7.49 1.8 1.77 4.3 2.65 7.5 2.65 1.55 0 2.86-0.12 3.94-0.36 1.07-0.22 2.09-0.57 3.03-1.05v-4.19c-1.16 0.55-2.27 0.95-3.34 1.19-1.06 0.25-2.19 0.38-3.39 0.38-1.54 0-2.73-0.44-3.58-1.3s-1.31-2.06-1.37-3.6h12.8v-2.63c0-2.82-0.78-5.02-2.34-6.62s-3.75-2.4-6.55-2.4zm35.77 0c-1.23 0-2.37 0.35-3.43 1.03-1.04 0.68-1.87 1.57-2.48 2.68h-0.27l-0.8-3.34h-4.1v19.85h5.42v-10.1c0-1.6 0.47-2.84 1.43-3.73 0.97-0.88 2.32-1.33 4.05-1.33 0.63 0 1.16 0.06 1.6 0.18l0.41-5.08c-0.49-0.11-1.1-0.16-1.83-0.16zm128.19 0c-3.06 0-5.44 0.9-7.14 2.7-1.69 1.8-2.53 4.32-2.53 7.56 0 2.08 0.39 3.91 1.17 5.47s1.9 2.76 3.35 3.6c1.46 0.83 3.14 1.25 5.04 1.25 3.05 0 5.42-0.92 7.12-2.74 1.71-1.82 2.56-4.35 2.56-7.58 0-2.08-0.39-3.9-1.17-5.45s-1.9-2.74-3.36-3.57c-1.45-0.82-3.13-1.24-5.04-1.24zm88.05 0c-2.93 0-5.23 0.91-6.9 2.73-1.66 1.82-2.49 4.38-2.49 7.71 0 3.23 0.9 5.73 2.7 7.49 1.8 1.77 4.3 2.65 7.49 2.65 1.55 0 2.87-0.12 3.94-0.36 1.08-0.22 2.09-0.57 3.04-1.05v-4.19c-1.16 0.55-2.27 0.95-3.34 1.19-1.06 0.25-2.19 0.38-3.39 0.38-1.54 0-2.73-0.44-3.58-1.3-0.86-0.86-1.31-2.06-1.37-3.6h12.8v-2.63c0-2.82-0.78-5.02-2.35-6.62-1.56-1.6-3.74-2.4-6.55-2.4zm-317.01 0.37v19.85h5.42v-19.85h-5.42zm273.96 0l7.57 19.85h5.55l7.57-19.85h-5.67l-3.81 11.31c-0.47 1.37-0.73 2.73-0.8 4.07h-0.14c-0.12-1.48-0.38-2.84-0.77-4.07l-3.83-11.31h-5.67zm-208.93 3.48c1.15 0 2.06 0.37 2.74 1.11 0.67 0.72 1.02 1.75 1.04 3.08h-7.59c0.09-1.33 0.46-2.36 1.11-3.08 0.65-0.74 1.55-1.11 2.7-1.11zm252.02 0c1.15 0 2.06 0.37 2.73 1.11 0.68 0.72 1.03 1.75 1.05 3.08h-7.6c0.1-1.33 0.47-2.36 1.12-3.08 0.65-0.74 1.55-1.11 2.7-1.11zm-407.28 0.52c1.45 0 2.5 0.49 3.14 1.47s0.96 2.46 0.96 4.42c0 1.98-0.32 3.47-0.96 4.48-0.63 0.99-1.66 1.49-3.11 1.49s-2.51-0.51-3.16-1.51c-0.64-1.01-0.96-2.49-0.96-4.46s0.32-3.45 0.96-4.42c0.64-0.98 1.68-1.47 3.13-1.47zm319.12 0c1.45 0 2.5 0.49 3.14 1.47s0.96 2.46 0.96 4.42c0 1.98-0.32 3.47-0.96 4.48-0.63 0.99-1.66 1.49-3.11 1.49s-2.5-0.51-3.15-1.51c-0.64-1.01-0.96-2.49-0.96-4.46s0.32-3.45 0.96-4.42c0.64-0.98 1.68-1.47 3.12-1.47zm-198.35 0.03c1.48 0 2.54 0.47 3.19 1.39 0.67 0.92 1 2.45 1 4.58v0.59c-0.06 1.92-0.42 3.29-1.07 4.09-0.64 0.81-1.65 1.21-3.03 1.21-1.26 0-2.22-0.48-2.9-1.45-0.67-0.99-1.01-2.45-1.01-4.41 0-1.95 0.33-3.43 1-4.45 0.67-1.03 1.61-1.55 2.82-1.55zm319.26 0c1.48 0 2.55 0.47 3.2 1.39 0.66 0.92 0.99 2.45 0.99 4.58v0.59c-0.06 1.92-0.41 3.29-1.06 4.09-0.64 0.81-1.65 1.21-3.04 1.21-1.25 0-2.22-0.48-2.89-1.45-0.68-0.99-1.01-2.45-1.01-4.41 0-1.95 0.33-3.43 0.99-4.45 0.68-1.03 1.62-1.55 2.82-1.55zm28.64 10.26c-0.44 0-0.85 0.06-1.23 0.16-0.38 0.11-0.71 0.28-0.99 0.52s-0.51 0.55-0.67 0.94c-0.16 0.38-0.24 0.85-0.24 1.4 0 0.54 0.08 0.99 0.24 1.37s0.39 0.69 0.67 0.94 0.61 0.43 0.99 0.53c0.38 0.12 0.79 0.18 1.23 0.18 0.41 0 0.8-0.06 1.17-0.18 0.38-0.1 0.71-0.28 0.99-0.53 0.29-0.25 0.51-0.56 0.68-0.94s0.25-0.83 0.25-1.37c0-0.55-0.08-1.02-0.25-1.4-0.17-0.39-0.39-0.7-0.68-0.94-0.28-0.24-0.61-0.41-0.99-0.52-0.37-0.1-0.76-0.16-1.17-0.16z"
     fill="#ffffff" /></svg>